<svg id="Layer_1" data-name="Layer 1" xmlns="http://www.w3.org/2000/svg" width="72.78" height="10.92" viewBox="0 0 72.78 10.92"><defs><style>.cls-1{fill:#555248;}</style></defs><title>logo-mobile</title><path class="cls-1" d="M261.45,247.14a3.22,3.22,0,0,1,1.3.23,4.49,4.49,0,0,1,.91.55c.16.12.28.13.36,0a1.17,1.17,0,0,0,.18-.65h.28c0,.29,0,.65,0,1.08s0,1,0,1.68h-.28c-.06-.35-.11-.62-.15-.82a2.73,2.73,0,0,0-.18-.53,3,3,0,0,0-.27-.43,2.15,2.15,0,0,0-.93-.71,3.22,3.22,0,0,0-1.19-.22,1.92,1.92,0,0,0-1.06.29,2.57,2.57,0,0,0-.82.85,4.5,4.5,0,0,0-.53,1.33,7.75,7.75,0,0,0-.19,1.75,6.79,6.79,0,0,0,.21,1.78,3.79,3.79,0,0,0,.57,1.3,2.41,2.41,0,0,0,.86.8,2.22,2.22,0,0,0,1.08.27,3.3,3.3,0,0,0,1.12-.21,1.89,1.89,0,0,0,.93-.7,2,2,0,0,0,.36-.76,9.49,9.49,0,0,0,.19-1.14h.28c0,.73,0,1.32,0,1.76s0,.82,0,1.12h-.28a1.34,1.34,0,0,0-.16-.64c-.08-.09-.21-.08-.38,0a6.79,6.79,0,0,1-.94.55,3.15,3.15,0,0,1-1.28.23,3.84,3.84,0,0,1-2-.51,3.45,3.45,0,0,1-1.33-1.49,6,6,0,0,1,0-4.69,3.81,3.81,0,0,1,1.35-1.58A3.55,3.55,0,0,1,261.45,247.14Z" transform="translate(-257.64 -247.14)"/><path class="cls-1" d="M271.15,247.14a3.78,3.78,0,0,1,2,.52,3.43,3.43,0,0,1,1.33,1.48,6,6,0,0,1,0,4.7,3.77,3.77,0,0,1-1.35,1.57,3.56,3.56,0,0,1-2,.56,3.8,3.8,0,0,1-2-.51A3.47,3.47,0,0,1,267.8,254a5.39,5.39,0,0,1-.47-2.34,5.25,5.25,0,0,1,.49-2.35,3.88,3.88,0,0,1,1.35-1.58A3.56,3.56,0,0,1,271.15,247.14Zm0,.22a1.94,1.94,0,0,0-1.36.54,3.53,3.53,0,0,0-.89,1.48,7,7,0,0,0-.32,2.2,6.37,6.37,0,0,0,.35,2.21,3.51,3.51,0,0,0,1,1.46,2,2,0,0,0,1.34.51,1.94,1.94,0,0,0,1.36-.54,3.55,3.55,0,0,0,.89-1.5,6.92,6.92,0,0,0,.32-2.19,6.47,6.47,0,0,0-.35-2.22,3.5,3.5,0,0,0-1-1.44A2,2,0,0,0,271.1,247.36Z" transform="translate(-257.64 -247.14)"/><path class="cls-1" d="M285,247.31v.24a1.58,1.58,0,0,0-.62.12.55.55,0,0,0-.28.35,2.39,2.39,0,0,0-.07.68v7.16h-.28l-5-7.78v6.33a2.38,2.38,0,0,0,.08.68.57.57,0,0,0,.31.35,2,2,0,0,0,.7.12v.24l-.56,0h-1.27l-.51,0v-.24a1.54,1.54,0,0,0,.62-.12.52.52,0,0,0,.28-.35,2.38,2.38,0,0,0,.08-.68v-5.83a2,2,0,0,0-.08-.65.43.43,0,0,0-.28-.29,2.15,2.15,0,0,0-.62-.09v-.24l.51,0h1.11l.44,0,4.23,6.53V248.7a2,2,0,0,0-.08-.68.54.54,0,0,0-.31-.35,1.92,1.92,0,0,0-.7-.12v-.24l.57,0h1.27Z" transform="translate(-257.64 -247.14)"/><path class="cls-1" d="M291.21,247.14a3.75,3.75,0,0,1,2,.52,3.43,3.43,0,0,1,1.33,1.48,5.19,5.19,0,0,1,.47,2.34,5.46,5.46,0,0,1-.48,2.36,3.92,3.92,0,0,1-1.35,1.57,3.61,3.61,0,0,1-2,.56,3.84,3.84,0,0,1-2-.51,3.45,3.45,0,0,1-1.33-1.49,6,6,0,0,1,0-4.69,3.74,3.74,0,0,1,1.35-1.58A3.55,3.55,0,0,1,291.21,247.14Zm4.52,8.94.18.07a3.33,3.33,0,0,1-.33.82,2,2,0,0,1-.42.55,2.12,2.12,0,0,1-.62.37,2.57,2.57,0,0,1-1,.17,3.61,3.61,0,0,1-1.23-.21,12.38,12.38,0,0,1-1.23-.51,12.58,12.58,0,0,0-1.41-.55l-.15-.05-.13,0a3.94,3.94,0,0,1-.49.14,3.08,3.08,0,0,1-.51,0,1.16,1.16,0,0,1-.4-.06q-.15-.06-.15-.18c0-.16.21-.25.65-.25a4.2,4.2,0,0,1,.9.1,4.83,4.83,0,0,0,.74-.27c.21-.1.42-.2.64-.28a2.56,2.56,0,0,1,.8-.17V256a2.1,2.1,0,0,0-.62.14l-.53.22a4.81,4.81,0,0,1-.62.23l1.3.25,1.37.23a8.6,8.6,0,0,0,1.13.09,3,3,0,0,0,1.36-.25A1.67,1.67,0,0,0,295.73,256.08Zm-4.57-8.72a1.9,1.9,0,0,0-1.35.54,3.44,3.44,0,0,0-.9,1.48,7,7,0,0,0-.32,2.2,6.13,6.13,0,0,0,.36,2.21,3.33,3.33,0,0,0,1,1.46,2,2,0,0,0,1.34.51,1.9,1.9,0,0,0,1.35-.54,3.56,3.56,0,0,0,.9-1.5,6.93,6.93,0,0,0,.31-2.19,6.23,6.23,0,0,0-.35-2.22,3.49,3.49,0,0,0-.95-1.44A2,2,0,0,0,291.16,247.36Z" transform="translate(-257.64 -247.14)"/><path class="cls-1" d="M304.88,247.31v.24a1.58,1.58,0,0,0-.62.12.55.55,0,0,0-.28.35,2.39,2.39,0,0,0-.07.68v3.61a9,9,0,0,1-.11,1.47,3.21,3.21,0,0,1-.38,1.08,2.38,2.38,0,0,1-.88.81,2.82,2.82,0,0,1-1.32.3,4,4,0,0,1-1.1-.14,2.1,2.1,0,0,1-.92-.51,2.86,2.86,0,0,1-.54-.7,2.62,2.62,0,0,1-.27-.92,10,10,0,0,1-.08-1.35v-3.77a2.08,2.08,0,0,0-.07-.65.45.45,0,0,0-.28-.29,2.21,2.21,0,0,0-.62-.09v-.24l.66,0h1.71l.69,0v.24a2.07,2.07,0,0,0-.61.09.46.46,0,0,0-.29.29,2.44,2.44,0,0,0-.07.65v4a8.6,8.6,0,0,0,.12,1.5,2,2,0,0,0,.52,1.09,1.68,1.68,0,0,0,1.26.41,2.21,2.21,0,0,0,1.41-.4,2.12,2.12,0,0,0,.69-1.11,6,6,0,0,0,.2-1.6V248.7a1.74,1.74,0,0,0-.1-.68.65.65,0,0,0-.34-.35,1.84,1.84,0,0,0-.65-.12v-.24l.57,0h1.27Z" transform="translate(-257.64 -247.14)"/><path class="cls-1" d="M313.13,247.31q0,.42-.06.81c0,.27,0,.47,0,.6s0,.29,0,.42,0,.24,0,.33h-.28a6.58,6.58,0,0,0-.2-1.12,1,1,0,0,0-.45-.59,2,2,0,0,0-1-.18h-1a2.29,2.29,0,0,0-.62.07.4.4,0,0,0-.28.28,2,2,0,0,0-.08.65v5.95a2.06,2.06,0,0,0,.08.65.4.4,0,0,0,.28.28,2,2,0,0,0,.62.07h.87a2.48,2.48,0,0,0,1.15-.21,1.12,1.12,0,0,0,.56-.66,4.84,4.84,0,0,0,.26-1.26h.28a6.85,6.85,0,0,0,0,.87c0,.15,0,.37,0,.65s0,.58.07.88l-1.38,0h-3.59l-1.26,0v-.24a2.07,2.07,0,0,0,.61-.09.46.46,0,0,0,.29-.29,2.49,2.49,0,0,0,.07-.65v-5.95a2.44,2.44,0,0,0-.07-.65.46.46,0,0,0-.29-.29,2.07,2.07,0,0,0-.61-.09v-.24l1.26,0h3.47Zm-2.06,4.1v.24h-2.19v-.24Zm.35-1.58c0,.45-.05.8,0,1v.66c0,.2,0,.42,0,.66s0,.59.07,1.05h-.28q0-.39-.12-.75a1.12,1.12,0,0,0-.28-.6,1,1,0,0,0-.75-.24v-.24a.86.86,0,0,0,.73-.27,1.47,1.47,0,0,0,.28-.65c0-.25.07-.47.1-.66Z" transform="translate(-257.64 -247.14)"/><path class="cls-1" d="M318.46,247.18a2.37,2.37,0,0,1,.91.13,4.14,4.14,0,0,1,.56.31l.23.13a.59.59,0,0,0,.17,0c.13,0,.22-.18.27-.53h.27a4.73,4.73,0,0,1,0,.49c0,.18,0,.43,0,.74s0,.71,0,1.22h-.27a3.81,3.81,0,0,0-.25-1.11,2.21,2.21,0,0,0-.63-.86,1.71,1.71,0,0,0-1.09-.34,1.48,1.48,0,0,0-1.05.39,1.28,1.28,0,0,0-.41,1,1.46,1.46,0,0,0,.27.9,2.65,2.65,0,0,0,.74.66l1,.63a12.48,12.48,0,0,1,1.11.76,3.18,3.18,0,0,1,.77.84,2,2,0,0,1,.28,1.1,2.09,2.09,0,0,1-1.27,2,3.1,3.1,0,0,1-1.27.25,3,3,0,0,1-1-.14,5.59,5.59,0,0,1-.64-.3.88.88,0,0,0-.4-.17c-.13,0-.22.18-.27.53h-.27q0-.25,0-.6c0-.22,0-.52,0-.89V253h.28a4.76,4.76,0,0,0,.27,1.34,2.26,2.26,0,0,0,.68,1,1.85,1.85,0,0,0,1.23.38,1.68,1.68,0,0,0,1.08-.38,1.44,1.44,0,0,0,.48-1.21,1.61,1.61,0,0,0-.51-1.22,8.75,8.75,0,0,0-1.36-1c-.37-.23-.73-.47-1-.71a3.1,3.1,0,0,1-.79-.83,2.11,2.11,0,0,1-.29-1.15,2,2,0,0,1,.31-1.17,1.93,1.93,0,0,1,.84-.68A2.7,2.7,0,0,1,318.46,247.18Z" transform="translate(-257.64 -247.14)"/><path class="cls-1" d="M330.41,247.31c0,.3-.05.6-.06.88s0,.5,0,.65,0,.38,0,.54,0,.32,0,.45h-.28a7.63,7.63,0,0,0-.23-1.33,1.13,1.13,0,0,0-.5-.7,2.27,2.27,0,0,0-1.12-.22h-.65v6.83a2.17,2.17,0,0,0,.09.72.54.54,0,0,0,.36.33,3.2,3.2,0,0,0,.77.1v.24l-.8,0h-2l-.76,0v-.24a3.17,3.17,0,0,0,.76-.1.54.54,0,0,0,.36-.33,2.17,2.17,0,0,0,.09-.72v-6.83h-.65a2.26,2.26,0,0,0-1.11.22,1.18,1.18,0,0,0-.51.7,7.63,7.63,0,0,0-.23,1.33h-.27q0-.2,0-.45v-.54c0-.15,0-.37,0-.65s0-.58-.06-.88l1.1,0h4.56Z" transform="translate(-257.64 -247.14)"/></svg>